<?plantuml 1.2026.2beta3?><svg xmlns="http://www.w3.org/2000/svg" xmlns:xlink="http://www.w3.org/1999/xlink" contentStyleType="text/css" data-diagram-type="CLASS" height="340px" preserveAspectRatio="none" style="width:464px;height:340px;background:#FFFFFF;" version="1.1" viewBox="0 0 464 340" width="464px" zoomAndPan="magnify"><title>Plan Manifestation Overview</title><defs/><g><g class="title" data-source-line="1"><text fill="#000000" font-family="sans-serif" font-size="14" font-weight="bold" lengthAdjust="spacing" textLength="227.2813" x="111.6462" y="22.9951">Plan Manifestation Overview</text></g><!--class RecordData--><g class="entity" data-qualified-name="RecordData" data-source-line="3" id="ent0002"><rect fill="#F1F1F1" height="48" rx="2.5" ry="2.5" style="stroke:#181818;stroke-width:0.5;" width="119.124" x="28.13" y="44.2969"/><ellipse cx="43.13" cy="60.2969" fill="#ADD1B2" rx="11" ry="11" style="stroke:#181818;stroke-width:1;"/><path d="M46.0987,65.9375 Q45.5206,66.2344 44.88,66.375 Q44.2394,66.5313 43.5362,66.5313 Q41.0362,66.5313 39.7081,64.8906 Q38.3956,63.2344 38.3956,60.1094 Q38.3956,56.9844 39.7081,55.3281 Q41.0362,53.6719 43.5362,53.6719 Q44.2394,53.6719 44.88,53.8281 Q45.5362,53.9844 46.0987,54.2813 L46.0987,57 Q45.4737,56.4219 44.88,56.1563 Q44.2862,55.875 43.6612,55.875 Q42.3175,55.875 41.63,56.9531 Q40.9425,58.0156 40.9425,60.1094 Q40.9425,62.2031 41.63,63.2813 Q42.3175,64.3438 43.6612,64.3438 Q44.2862,64.3438 44.88,64.0781 Q45.4737,63.7969 46.0987,63.2188 L46.0987,65.9375 Z " fill="#000000"/><text fill="#000000" font-family="sans-serif" font-size="14" lengthAdjust="spacing" textLength="87.124" x="57.13" y="65.1436">Record Data</text><line style="stroke:#181818;stroke-width:0.5;" x1="29.13" x2="146.254" y1="76.2969" y2="76.2969"/><line style="stroke:#181818;stroke-width:0.5;" x1="29.13" x2="146.254" y1="84.2969" y2="84.2969"/></g><g class="entity" data-qualified-name="GMN3" data-source-line="5" id="ent0004"><path d="M182.14,55.7369 L182.14,64.2969 L147.43,68.2969 L182.14,72.2969 L182.14,80.8697 A0,0 0 0 0 182.14,80.8697 L373.2381,80.8697 A0,0 0 0 0 373.2381,80.8697 L373.2381,65.7369 L363.2381,55.7369 L182.14,55.7369 A0,0 0 0 0 182.14,55.7369" fill="#FEFFDD" style="stroke:#181818;stroke-width:0.5;"/><path d="M363.2381,55.7369 L363.2381,65.7369 L373.2381,65.7369 L363.2381,55.7369" fill="#FEFFDD" style="stroke:#181818;stroke-width:0.5;"/><text fill="#000000" font-family="sans-serif" font-size="13" lengthAdjust="spacing" textLength="170.0981" x="188.14" y="72.8038">EHR, CarePlan Application</text></g><!--class PlanManifestation--><g class="entity" data-qualified-name="PlanManifestation" data-source-line="7" id="ent0006"><rect fill="#F1F1F1" height="48" rx="2.5" ry="2.5" style="stroke:#181818;stroke-width:0.5;" width="161.377" x="7" y="281.9969"/><ellipse cx="22" cy="297.9969" fill="#ADD1B2" rx="11" ry="11" style="stroke:#181818;stroke-width:1;"/><path d="M24.9688,303.6375 Q24.3906,303.9344 23.75,304.075 Q23.1094,304.2313 22.4063,304.2313 Q19.9063,304.2313 18.5781,302.5906 Q17.2656,300.9344 17.2656,297.8094 Q17.2656,294.6844 18.5781,293.0281 Q19.9063,291.3719 22.4063,291.3719 Q23.1094,291.3719 23.75,291.5281 Q24.4063,291.6844 24.9688,291.9813 L24.9688,294.7 Q24.3438,294.1219 23.75,293.8563 Q23.1563,293.575 22.5313,293.575 Q21.1875,293.575 20.5,294.6531 Q19.8125,295.7156 19.8125,297.8094 Q19.8125,299.9031 20.5,300.9813 Q21.1875,302.0438 22.5313,302.0438 Q23.1563,302.0438 23.75,301.7781 Q24.3438,301.4969 24.9688,300.9188 L24.9688,303.6375 Z " fill="#000000"/><text fill="#000000" font-family="sans-serif" font-size="14" lengthAdjust="spacing" textLength="129.377" x="36" y="302.8436">Plan Manifestation</text><line style="stroke:#181818;stroke-width:0.5;" x1="8" x2="167.377" y1="313.9969" y2="313.9969"/><line style="stroke:#181818;stroke-width:0.5;" x1="8" x2="167.377" y1="321.9969" y2="321.9969"/></g><g class="entity" data-qualified-name="GMN7" data-source-line="9" id="ent0008"><path d="M203.68,278.2969 L203.68,301.9969 L168.82,305.9969 L203.68,309.9969 L203.68,333.6953 A0,0 0 0 0 203.68,333.6953 L337.6937,333.6953 A0,0 0 0 0 337.6937,333.6953 L337.6937,288.2969 L327.6937,278.2969 L203.68,278.2969 A0,0 0 0 0 203.68,278.2969" fill="#FEFFDD" style="stroke:#181818;stroke-width:0.5;"/><path d="M327.6937,278.2969 L327.6937,288.2969 L337.6937,288.2969 L327.6937,278.2969" fill="#FEFFDD" style="stroke:#181818;stroke-width:0.5;"/><text fill="#000000" font-family="sans-serif" font-size="13" lengthAdjust="spacing" textLength="113.0137" x="209.68" y="295.3638">Paper Document,</text><text fill="#000000" font-family="sans-serif" font-size="13" lengthAdjust="spacing" textLength="96.0972" x="209.68" y="310.4966">User Interface,</text><text fill="#000000" font-family="sans-serif" font-size="13" lengthAdjust="spacing" textLength="75.9814" x="209.68" y="325.6294">API Payload</text></g><!--class DataSpecification--><g class="entity" data-qualified-name="DataSpecification" data-source-line="11" id="ent0010"><rect fill="#F1F1F1" height="48" rx="2.5" ry="2.5" style="stroke:#181818;stroke-width:0.5;" width="159.7637" x="297.81" y="169.2969"/><ellipse cx="312.81" cy="185.2969" fill="#ADD1B2" rx="11" ry="11" style="stroke:#181818;stroke-width:1;"/><path d="M315.7788,190.9375 Q315.2006,191.2344 314.56,191.375 Q313.9194,191.5312 313.2163,191.5312 Q310.7163,191.5312 309.3881,189.8906 Q308.0756,188.2344 308.0756,185.1094 Q308.0756,181.9844 309.3881,180.3281 Q310.7163,178.6719 313.2163,178.6719 Q313.9194,178.6719 314.56,178.8281 Q315.2163,178.9844 315.7788,179.2812 L315.7788,182 Q315.1538,181.4219 314.56,181.1562 Q313.9663,180.875 313.3413,180.875 Q311.9975,180.875 311.31,181.9531 Q310.6225,183.0156 310.6225,185.1094 Q310.6225,187.2031 311.31,188.2812 Q311.9975,189.3437 313.3413,189.3437 Q313.9663,189.3437 314.56,189.0781 Q315.1538,188.7969 315.7788,188.2187 L315.7788,190.9375 Z " fill="#000000"/><text fill="#000000" font-family="sans-serif" font-size="14" lengthAdjust="spacing" textLength="127.7637" x="326.81" y="190.1436">Data Specification</text><line style="stroke:#181818;stroke-width:0.5;" x1="298.81" x2="456.5737" y1="201.2969" y2="201.2969"/><line style="stroke:#181818;stroke-width:0.5;" x1="298.81" x2="456.5737" y1="209.2969" y2="209.2969"/></g><g class="entity" data-qualified-name="GMN11" data-source-line="13" id="ent0012"><path d="M124.89,173.1669 L124.89,213.4325 A0,0 0 0 0 124.89,213.4325 L262.4901,213.4325 A0,0 0 0 0 262.4901,213.4325 L262.4901,197.2969 L297.73,193.2969 L262.4901,189.2969 L262.4901,183.1669 L252.4901,173.1669 L124.89,173.1669 A0,0 0 0 0 124.89,173.1669" fill="#FEFFDD" style="stroke:#181818;stroke-width:0.5;"/><path d="M252.4901,173.1669 L252.4901,183.1669 L262.4901,183.1669 L252.4901,173.1669" fill="#FEFFDD" style="stroke:#181818;stroke-width:0.5;"/><text fill="#000000" font-family="sans-serif" font-size="13" lengthAdjust="spacing" textLength="114.8608" x="130.89" y="190.2338">Profile, Template,</text><text fill="#000000" font-family="sans-serif" font-size="13" lengthAdjust="spacing" textLength="116.6001" x="130.89" y="205.3666">Pathway, Protocol</text></g><ellipse cx="87.69" cy="193.2969" fill="#181818" rx="2" ry="2" style="stroke:#181818;stroke-width:1;"/><!--link RecordData to apoint15--><g class="link" data-entity-1="ent0002" data-entity-2="ent0016" data-link-type="association" data-source-line="16" id="lnk17"><path d="M87.69,92.7269 C87.69,125.6269 87.69,182.4869 87.69,191.1769" fill="none" id="RecordData-apoint15" style="stroke:#181818;stroke-width:1;"/><text fill="#000000" font-family="sans-serif" font-size="13" lengthAdjust="spacing" textLength="78.4888" x="88.69" y="135.3638">&#171;Conforms&#187;</text></g><!--link apoint15 to PlanManifestation--><g class="link" data-entity-1="ent0016" data-entity-2="ent0006" data-link-type="dependency" data-source-line="16" id="lnk18"><path d="M87.69,195.5369 C87.69,203.8569 87.69,245.9469 87.69,275.5569" fill="none" id="apoint15-to-PlanManifestation" style="stroke:#181818;stroke-width:1;"/><polygon fill="#181818" points="87.69,281.5569,91.69,272.5569,87.69,276.5569,83.69,272.5569,87.69,281.5569" style="stroke:#181818;stroke-width:1;"/></g><!--link apoint15 to DataSpecification--><g class="link" data-entity-1="ent0016" data-entity-2="ent0010" data-link-type="association" data-source-line="16" id="lnk19"><path d="M88.2,191.0169 C90.49,181.4769 100.74,144.6369 125.19,130.7969 C178.17,100.7969 203.16,115.8569 262.19,130.7969 C291.58,138.2369 321.61,154.8169 343.68,169.0369" fill="none" id="apoint15-DataSpecification" style="stroke:#181818;stroke-width:1;stroke-dasharray:7,7;"/></g><?plantuml-src RP3DIaCn44RtUOgXAuMq3r3AXT8ATY5UgkxS3Ed41d8p8HbRYlZktaJf3t4vttp9EOauyGIznm1F69obB2YE0pmVA1qS7PKo7dE6oPOCfnsiKN02cE5tBYDygMyLM0YI-zWBiBrUpk7XSQjXXOagPXcZTwP2pdUt_8eeyQrLIsexS-WnKe8rcy-1WkZty9R7UHE4aaL3Ox3iDsFhv1btPubg-nB9EFldLoLAV9DU93pPwj1MHeV4rddIy4f3z2Y5sgFiZtZIPIbis2jrzL7JQVVlQnQB5GVBQSXTf-uk1tJRleVPhBNv0G00?></g></svg>